<?xml version="1.0" encoding="UTF-8" standalone="no"?>
<!DOCTYPE svg PUBLIC "-//W3C//DTD SVG 1.1//EN" "http://www.w3.org/Graphics/SVG/1.1/DTD/svg11.dtd">
<svg width="100%" height="100%" viewBox="0 0 411 408" version="1.1" xmlns="http://www.w3.org/2000/svg" xmlns:xlink="http://www.w3.org/1999/xlink" xml:space="preserve" xmlns:serif="http://www.serif.com/" style="fill-rule:evenodd;clip-rule:evenodd;stroke-linejoin:round;stroke-miterlimit:2;">
    <g transform="matrix(1,0,0,1,-4089.06,-3412.3)">
        <g transform="matrix(0.322013,0,0,0.143856,2477.37,2802.16)">
            <g transform="matrix(3.66113,0,0,7.7076,-10019.8,-22059.3)">
                <rect x="4103.87" y="3412.3" width="348.131" height="367.697" style="fill:rgb(65,65,65);fill-opacity:0;"/>
                <clipPath id="_clip1">
                    <rect x="4103.87" y="3412.3" width="348.131" height="367.697"/>
                </clipPath>
                <g clip-path="url(#_clip1)">
                    <g id="V" transform="matrix(2.377,0,0,2.52738,3405.13,3097.07)">
                        <path d="M434.94,124.727L407.722,124.727L367.582,220.281L327.245,124.727L299.245,124.727L365.624,270.212L368.757,270.212L434.94,124.727Z" style="fill:rgb(25,25,25);"/>
                    </g>
                    <g transform="matrix(0.643959,0,0,0.713428,917.944,1805.97)">
                        <path d="M5219.16,2590.08L5188.26,2644.86L5204.28,2556.25L5219.16,2590.08Z" style="fill-opacity:0.47;"/>
                    </g>
                    <g transform="matrix(0.464968,0,0,0.494384,1870.57,2326.02)">
                        <path d="M5613,2069L4741,2069L4741,2941L5613,2941L5613,2069ZM5523.85,2197.25L5384.71,2197.25L5228.49,2569.13L5130.28,2569.13L4973.3,2197.25L4830.15,2197.25L4999.82,2569.13L5354.68,2569.13L5523.85,2197.25Z" style="fill:none;"/>
                        <clipPath id="_clip2">
                            <path d="M5613,2069L4741,2069L4741,2941L5613,2941L5613,2069ZM5523.85,2197.25L5384.71,2197.25L5228.49,2569.13L5130.28,2569.13L4973.3,2197.25L4830.15,2197.25L4999.82,2569.13L5354.68,2569.13L5523.85,2197.25Z"/>
                        </clipPath>
                        <g clip-path="url(#_clip2)">
                            <g transform="matrix(1.08073,0,0,1.08073,-417.922,-197.16)">
                                <path d="M5177,2418.45C5368.43,2418.45 5523.85,2477.43 5523.85,2550.08C5523.85,2622.73 5368.43,2681.71 5177,2681.71C4985.57,2681.71 4830.15,2622.73 4830.15,2550.08C4830.15,2477.43 4985.57,2418.45 5177,2418.45ZM5177,2456.46C5339.41,2456.46 5471.27,2498.41 5471.27,2550.08C5471.27,2601.75 5339.41,2643.69 5177,2643.69C5014.59,2643.69 4882.73,2601.75 4882.73,2550.08C4882.73,2498.41 5014.59,2456.46 5177,2456.46Z" style="fill:rgb(3,3,3);"/>
                            </g>
                        </g>
                    </g>
                </g>
            </g>
        </g>
    </g>
</svg>
