<?xml version="1.0" encoding="UTF-8" standalone="no"?>
<!DOCTYPE svg PUBLIC "-//W3C//DTD SVG 1.1//EN" "http://www.w3.org/Graphics/SVG/1.1/DTD/svg11.dtd">
<svg width="100%" height="100%" viewBox="0 0 808 720" version="1.1" xmlns="http://www.w3.org/2000/svg" xmlns:xlink="http://www.w3.org/1999/xlink" xml:space="preserve" xmlns:serif="http://www.serif.com/" style="fill-rule:evenodd;clip-rule:evenodd;stroke-linejoin:round;stroke-miterlimit:2;">
    <g transform="matrix(1,0,0,1,-4780.04,-2145)">
        <g transform="matrix(1,0,0,1,8917,87)">
            <g transform="matrix(1.03561,0,0,0.968069,-9101.33,-69.0909)">
                <path d="M5573.38,2197.25L4793.69,2197.25L4794.12,2941L5573.38,2941L5573.38,2197.25Z" style="fill:rgb(65,65,65);fill-opacity:0;"/>
                <clipPath id="_clip1">
                    <path d="M5573.38,2197.25L4793.69,2197.25L4794.12,2941L5573.38,2941L5573.38,2197.25Z"/>
                </clipPath>
                <g clip-path="url(#_clip1)">
                    <g id="V" transform="matrix(5.11219,0,0,5.11219,3300.36,1559.62)">
                        <path d="M434.94,124.727L407.722,124.727L367.582,220.281L327.245,124.727L299.245,124.727C299.245,124.727 357.886,253.254 364.933,268.7C365.356,269.625 366.234,270.212 367.197,270.212C367.197,270.212 367.197,270.212 367.197,270.212C368.151,270.212 369.021,269.63 369.439,268.713C376.439,253.325 434.94,124.727 434.94,124.727Z" style="fill:rgb(255,44,0);"/>
                    </g>
                    <g transform="matrix(1.38495,0,0,1.44307,-2048.8,-1051.91)">
                        <path d="M5219.16,2590.08L5188.26,2644.86L5204.28,2556.25L5219.16,2590.08Z" style="fill-opacity:0.22;"/>
                    </g>
                    <path d="M5613,2069L4741,2069L4741,2941L5613,2941L5613,2069ZM5523.85,2197.25L5384.71,2197.25L5228.49,2569.13L5130.28,2569.13L4973.3,2197.25L4830.15,2197.25L4999.82,2569.13L5354.68,2569.13L5523.85,2197.25Z" style="fill:none;"/>
                    <clipPath id="_clip2">
                        <path d="M5613,2069L4741,2069L4741,2941L5613,2941L5613,2069ZM5523.85,2197.25L5384.71,2197.25L5228.49,2569.13L5130.28,2569.13L4973.3,2197.25L4830.15,2197.25L4999.82,2569.13L5354.68,2569.13L5523.85,2197.25Z"/>
                    </clipPath>
                    <g clip-path="url(#_clip2)">
                        <g transform="matrix(1.76005,0,0,0.71869,-3816.08,705.53)">
                            <path d="M5113.4,2800.02C4991.22,2800.02 4892.03,2700.83 4892.03,2578.65C4892.03,2456.47 4991.22,2357.27 5113.4,2357.27C5235.58,2357.27 5334.78,2456.47 5334.78,2578.65C5334.78,2700.83 5235.58,2800.02 5113.4,2800.02M5113.4,2720.66C5191.78,2720.66 5297.45,2656.9 5297.45,2578.53C5297.45,2500.15 5191.78,2436.64 5113.4,2436.64C5035.02,2436.64 4929.35,2500.15 4929.35,2578.53C4929.35,2656.9 5035.02,2720.66 5113.4,2720.66" style="fill:rgb(36,108,255);"/>
                        </g>
                    </g>
                </g>
            </g>
        </g>
    </g>
</svg>
